<svg xmlns="http://www.w3.org/2000/svg" fill="none" viewBox="0 0 200 51" height="51" width="200">
<g clip-path="url(#clip0_1_2)">
<path fill="#FF0000" d="M31.4128 5.96191H26.8616C26.4687 5.96191 26.1501 6.28437 26.1501 6.68213V9.55128C26.1501 9.94905 26.4687 10.2715 26.8616 10.2715H31.4128C31.8057 10.2715 32.1242 9.94905 32.1242 9.55128V6.68213C32.1242 6.28437 31.8057 5.96191 31.4128 5.96191Z"></path>
<path fill="#FF0000" d="M177.195 15.1739V28.9256C177.195 29.3039 176.892 29.6094 176.52 29.6094H167.962C167.588 29.6094 167.286 29.3026 167.286 28.9256V15.1739C167.286 14.7956 166.983 14.4901 166.611 14.4901H145.103C144.729 14.4901 144.428 14.7969 144.428 15.1739V28.9256C144.428 29.3039 144.124 29.6094 143.752 29.6094H135.154C134.781 29.6094 134.479 29.3026 134.479 28.9256V15.1739C134.479 14.7956 134.176 14.4901 133.803 14.4901H112.174C111.8 14.4901 111.498 14.7969 111.498 15.1739V28.9256C111.498 29.3039 111.195 29.6094 110.823 29.6094H102.224C101.85 29.6094 101.548 29.3026 101.548 28.9256V0.683813C101.548 0.305506 101.245 0 100.873 0H96.2508C95.8771 0 95.5753 0.306806 95.5753 0.683813V28.9243C95.5753 29.3026 95.2722 29.6081 94.8998 29.6081H70.0608C69.6871 29.6081 69.3853 29.3013 69.3853 28.9243V18.9544C69.3853 18.7152 69.5767 18.5228 69.8117 18.5228H79.8605C80.0968 18.5228 80.2869 18.7165 80.2869 18.9544V21.7078C80.2869 21.947 80.0956 22.1394 79.8605 22.1394H72.4379V26.1734H85.5996C85.9733 26.1734 86.2751 25.8666 86.2751 25.4896V15.1752C86.2751 14.7969 85.972 14.4914 85.5996 14.4914H64.0867C63.713 14.4914 63.4112 14.7982 63.4112 15.1752V28.9256C63.4112 29.3039 63.1082 29.6094 62.7357 29.6094H51.1407C51.1266 29.6094 51.115 29.6211 51.115 29.6354V33.6161C51.115 33.6304 51.1266 33.6421 51.1407 33.6421H52.85C53.2391 33.6421 53.5537 33.9619 53.5537 34.3545V46.5344C53.5537 46.7736 53.3624 46.9673 53.1261 46.9673H48.4837C48.2474 46.9673 48.056 46.7736 48.056 46.5344V0.683813C48.056 0.305506 47.753 0 47.3806 0H42.7587C42.385 0 42.0832 0.306806 42.0832 0.683813V28.9243C42.0832 29.3026 41.7802 29.6081 41.4077 29.6081H32.8421C32.4684 29.6081 32.1666 29.3013 32.1666 28.9243V14.0468C32.1666 13.6685 31.8636 13.363 31.4912 13.363H26.8693C26.4956 13.363 26.1938 13.6698 26.1938 14.0468V28.9243C26.1938 29.3026 25.8908 29.6081 25.5183 29.6081H6.64959C6.27589 29.6081 5.9741 29.3013 5.9741 28.9243V0.683813C5.9741 0.305506 5.67103 0 5.29861 0H0.675489C0.303071 0 0 0.306806 0 0.683813V32.9569C0 33.3353 0.303071 33.6408 0.675489 33.6408H41.4013C41.775 33.6408 42.0768 33.9476 42.0768 34.3246V50.3136C42.0768 50.6919 42.3799 50.9974 42.7523 50.9974H58.8472C59.2209 50.9974 59.5227 50.6906 59.5227 50.3136V34.3246C59.5227 33.9463 59.8257 33.6408 60.1982 33.6408H149.761C150.135 33.6408 150.438 33.334 150.438 32.9556V19.2053C150.438 18.827 150.741 18.5215 151.113 18.5215H160.63C161.004 18.5215 161.306 18.8283 161.306 19.2053V32.9556C161.306 33.334 161.609 33.6395 161.981 33.6395H193.347C193.72 33.6395 194.022 33.9463 194.022 34.3233V39.4883C194.022 39.8666 193.719 40.1721 193.347 40.1721H177.442C177.068 40.1721 176.766 40.4789 176.766 40.8559V43.5301C176.766 43.9084 177.069 44.2139 177.442 44.2139H199.321C199.694 44.2139 199.996 43.9071 199.996 43.5301V15.1739C199.996 14.7956 199.693 14.4901 199.321 14.4901H177.868C177.494 14.4901 177.193 14.7969 177.193 15.1739H177.195ZM118.146 18.5228H127.823C128.197 18.5228 128.498 18.8296 128.498 19.2066V28.9256C128.498 29.3039 128.195 29.6094 127.823 29.6094H118.146C117.773 29.6094 117.471 29.3026 117.471 28.9256V19.2066C117.471 18.8283 117.774 18.5228 118.146 18.5228ZM183.845 18.5228H193.349C193.723 18.5228 194.025 18.8296 194.025 19.2066V28.9165C194.025 29.2935 193.723 29.6003 193.349 29.6003L183.845 29.6146C183.471 29.6146 183.168 29.3091 183.168 28.9308V19.2053C183.168 18.827 183.471 18.5215 183.843 18.5215L183.845 18.5228Z"></path>
</g>
<defs>
<clipPath id="clip0_1_2">
<rect fill="white" height="51" width="200"></rect>
</clipPath>
</defs>
</svg>
