<?xml version="1.0" encoding="UTF-8"?>
<svg id="Layer_1" xmlns="http://www.w3.org/2000/svg" version="1.1" viewBox="0 0 792 612">
  <!-- Generator: Adobe Illustrator 29.8.2, SVG Export Plug-In . SVG Version: 2.1.1 Build 3)  -->
  <defs>
    <style>
      .st0 {
        fill: #ffce2f;
      }

      .st1 {
        fill: #746fa8;
      }

      .st2 {
        fill: #355494;
      }

      .st3 {
        fill: #3398b3;
      }

      .st4 {
        fill: #7ec45f;
      }

      .st5 {
        fill: #f57f28;
      }

      .st6 {
        fill: #302157;
      }

      .st7 {
        fill: #bc2c71;
      }
    </style>
  </defs>
  <g>
    <path class="st3" d="M354.2,293.5h-6.2v-6.1h6.2v-2.5c0-8,4.7-12.5,11.4-12.5s4.5.5,6.1,1.4l-1.6,5.2c-.9-.5-2.1-.8-3.3-.8-3.5,0-5.6,2.3-5.6,6.8v2.5h7.6v6.1h-7.6v31.2h-7v-31.2Z"/>
    <path class="st3" d="M371.9,306.1c0-10.7,7.3-19.5,18.9-19.5s18.9,8.8,18.9,19.5-7.2,19.6-18.9,19.6-18.9-8.8-18.9-19.6ZM402.4,306.1c0-7-4.1-13.4-11.6-13.4s-11.6,6.3-11.6,13.4,4.2,13.4,11.6,13.4,11.6-6.3,11.6-13.4Z"/>
    <path class="st3" d="M442.9,319.6c-2.9,3.1-7.6,6-13.3,6s-11.9-4-11.9-11.9v-26.3h7v24c0,6.2,3.1,8,7.9,8s8.3-2.5,10.4-5.3v-26.8h7v37.3h-7v-5.1Z"/>
    <path class="st3" d="M485.3,300.9c0-6.2-3.2-8.2-8-8.2s-8.3,2.6-10.3,5.4v26.7h-7v-37.3h7v5.3c2.5-3,7.4-6.2,13.2-6.2s12,4.2,12,12.1v26.2h-7v-23.9Z"/>
    <path class="st3" d="M529.3,319.4c-2.8,3.7-7.3,6.3-12.2,6.3-9.7,0-16.7-7.3-16.7-19.5s7-19.6,16.7-19.6,9.2,2.3,12.2,6.3v-19.6h7v51.5h-7v-5.3ZM529.3,298.2c-1.9-3-6.1-5.5-10.4-5.5-7,0-11.3,5.6-11.3,13.4s4.3,13.4,11.3,13.4,8.4-2.4,10.4-5.4v-15.9Z"/>
    <path class="st3" d="M569.7,320.7c-2.9,3.2-7.2,5-12.2,5s-13-4.2-13-12.4,6.7-12.2,13-12.2,9.3,1.6,12.2,4.9v-6.2c0-4.6-3.8-7.4-9.1-7.4s-7.9,1.6-11.2,4.9l-3-4.8c4.2-4.1,9.3-6.1,15.3-6.1s15,3.6,15,13.1v25.2h-7v-4.1ZM569.7,310.2c-2.1-2.8-5.7-4.2-9.6-4.2s-8.6,3-8.6,7.4,3.6,7.4,8.6,7.4,7.5-1.5,9.6-4.2v-6.3Z"/>
    <path class="st3" d="M588.4,316.5v-22.9h-6.2v-6.1h6.2v-10.2h7v10.2h7.6v6.1h-7.6v21.4c0,2.6,1.2,4.6,3.6,4.6s3.1-.7,3.8-1.5l1.8,5.3c-1.5,1.4-3.6,2.4-7.3,2.4-5.9,0-8.9-3.3-8.9-9.2Z"/>
    <path class="st3" d="M609.2,276.8c0-2.5,2.1-4.5,4.5-4.5s4.5,2,4.5,4.5-2,4.4-4.5,4.4-4.5-1.9-4.5-4.4ZM610.3,287.4h7v37.3h-7v-37.3Z"/>
    <path class="st3" d="M625,306.1c0-10.7,7.3-19.5,18.9-19.5s18.9,8.8,18.9,19.5-7.2,19.6-18.9,19.6-18.9-8.8-18.9-19.6ZM655.5,306.1c0-7-4.1-13.4-11.6-13.4s-11.6,6.3-11.6,13.4,4.2,13.4,11.6,13.4,11.6-6.3,11.6-13.4Z"/>
    <path class="st3" d="M696.1,300.9c0-6.2-3.2-8.2-8-8.2s-8.3,2.6-10.3,5.4v26.7h-7v-37.3h7v5.3c2.5-3,7.4-6.2,13.2-6.2s12,4.2,12,12.1v26.2h-7v-23.9Z"/>
  </g>
  <path class="st3" d="M296.9,269.6c-.8,3.1-4,4.9-7.1,4.1-3.1-.8-4.9-4-4.1-7.1.8-3.1,4-4.9,7.1-4.1,3.1.8,4.9,4,4.1,7.1Z"/>
  <path class="st5" d="M296.9,345.7c-.8,3.1-4,4.9-7.1,4.1-3.1-.8-4.9-4-4.1-7.1.8-3.1,4-4.9,7.1-4.1,3.1.8,4.9,4,4.1,7.1Z"/>
  <g>
    <g>
      <g>
        <circle class="st4" cx="272.6" cy="263.7" r="4.6"/>
        <circle class="st2" cx="307.8" cy="282.5" r="7.6"/>
      </g>
      <g>
        <circle class="st0" cx="272.6" cy="348.6" r="4.6"/>
        <circle class="st7" cx="307.8" cy="329.8" r="7.6"/>
      </g>
    </g>
    <circle class="st1" cx="315" cy="306.2" r="8.6" transform="translate(-64 528.3) rotate(-74.6)"/>
  </g>
  <path class="st6" d="M157.3,287.1h9.9s0,37.9,0,37.9h-9.9s0-37.9,0-37.9ZM163.3,270.2c-3-.8-6.2,1-7,4-.8,3,1,6.2,4,7,3,.8,6.2-1,7-4,.8-3-1-6.2-4-7ZM197.6,325.8c-2.6,0-4.9-.5-6.9-1.4-2.1-.9-3.7-2.3-5-4v23.5s-9.6,0-9.6,0v-56.8s9.5,0,9.5,0v5.3c1.3-1.9,2.9-3.3,5-4.4,2.1-1.1,4.4-1.6,6.9-1.6,2.4,0,4.7.5,6.9,1.4,2.2.9,4.1,2.2,5.8,4,1.7,1.7,3,3.8,4,6.2,1,2.4,1.5,5.1,1.5,8.1,0,3-.5,5.8-1.5,8.2-1,2.4-2.4,4.5-4.1,6.2-1.7,1.7-3.6,3.1-5.8,4-2.2.9-4.4,1.4-6.8,1.4ZM195.6,316.7c1.4,0,2.8-.3,4.1-.8,1.3-.6,2.4-1.3,3.3-2.3,1-1,1.7-2.1,2.2-3.4.5-1.3.8-2.7.8-4.2s-.3-2.9-.8-4.2c-.5-1.3-1.3-2.4-2.2-3.4-1-1-2.1-1.7-3.3-2.3-1.3-.6-2.6-.8-4.1-.8-1.5,0-2.9.3-4.2.8-1.3.6-2.4,1.3-3.3,2.3-.9,1-1.7,2.1-2.2,3.4-.5,1.3-.8,2.7-.8,4.1,0,1.5.3,2.9.8,4.2.5,1.3,1.3,2.4,2.2,3.4.9,1,2,1.7,3.3,2.3,1.3.6,2.7.8,4.2.8ZM222.7,287.1h9.5s0,5.8,0,5.8c.9-2.2,2.3-3.9,4.1-4.9,1.8-1.1,3.9-1.6,6.3-1.6s2.4.1,3.5.4c1.1.3,2,.6,2.8,1.1l-3.5,9.5c-.5-.4-1.2-.7-2.1-.9-.9-.3-1.9-.4-2.9-.4-2.5,0-4.5.7-6,2.1-1.5,1.4-2.2,3.7-2.2,6.8v20s-9.6,0-9.6,0v-37.9ZM270.5,325.8c-2.9,0-5.5-.5-7.9-1.5-2.4-1-4.5-2.4-6.3-4.2-1.8-1.8-3.2-3.9-4.2-6.3-1-2.4-1.5-4.9-1.5-7.6,0-2.7.5-5.3,1.5-7.7,1-2.4,2.4-4.5,4.2-6.3,1.8-1.8,3.9-3.2,6.3-4.2,2.4-1,5.1-1.5,7.9-1.5,2.8,0,5.4.5,7.9,1.5,2.5,1,4.6,2.4,6.4,4.2,1.8,1.8,3.2,3.9,4.2,6.3,1,2.4,1.5,5,1.5,7.7,0,2.7-.5,5.3-1.5,7.6-1,2.4-2.4,4.5-4.2,6.3-1.8,1.8-3.9,3.2-6.3,4.2-2.5,1-5.1,1.5-8,1.5ZM270.6,316.6c1.4,0,2.8-.3,4.1-.8,1.3-.6,2.4-1.3,3.3-2.2.9-.9,1.7-2,2.2-3.3.5-1.3.8-2.7.8-4.2,0-1.4-.3-2.8-.8-4.1-.5-1.3-1.3-2.4-2.2-3.4-.9-.9-2-1.7-3.3-2.2-1.3-.6-2.6-.8-4.1-.8-1.5,0-2.8.3-4.1.8-1.3.6-2.4,1.3-3.3,2.2-.9.9-1.7,2.1-2.2,3.4-.5,1.3-.8,2.7-.8,4.1,0,1.5.3,2.9.8,4.2.5,1.3,1.3,2.4,2.2,3.3.9.9,2,1.7,3.3,2.2,1.3.6,2.6.8,4.1.8ZM88.9,287.1h9.8s7.6,24.2,7.6,24.2l9-24.2h8.6s8.8,24.2,8.8,24.2l7.9-24.2h9.8s-12.8,37.8-12.8,37.8h-9.1s-9-24.7-9-24.7l-9.1,24.7h-9.3s-12.3-37.8-12.3-37.8Z"/>
</svg>