<?xml version="1.0" encoding="UTF-8"?>
<svg id="Layer_1" xmlns="http://www.w3.org/2000/svg" version="1.1" viewBox="0 0 792 612">
  <!-- Generator: Adobe Illustrator 29.8.2, SVG Export Plug-In . SVG Version: 2.1.1 Build 3)  -->
  <defs>
    <style>
      .st0 {
        fill: #bccb43;
      }

      .st1 {
        fill: #4f4f50;
      }
    </style>
  </defs>
  <g>
    <path class="st0" d="M140.5,355.3c27.2,0,49.3-22.1,49.3-49.3s-22.1-49.3-49.3-49.3-49.3,22.1-49.3,49.3,22.1,49.3,49.3,49.3"/>
    <g>
      <path class="st1" d="M193.9,329.8h-10.4l-10.6-31.4-10.4,31.4h-10.4l-11.8-46.6h10.8l7.4,30.5,9.8-30.1h9.2l9.9,30,7.2-30.5h10.7l-11.4,46.6Z"/>
      <path class="st1" d="M212.8,276.8v-11.6h12v11.6h-12ZM213.1,329.8v-46.6h11.4v46.6h-11.4Z"/>
      <path class="st1" d="M272,327.2c-2.9,2.3-6.6,3.8-11.4,3.8s-10-2-12.2-4.6v21.2h-11.2v-64.4h9.7l.7,5.1c2.8-4.3,8-6.2,13.1-6.2s8.4,1.6,11.3,3.9c5.6,4.6,8.3,11.6,8.3,20.3s-2.8,16.2-8.3,20.8ZM266,295.2c-1.6-2.1-4-3.7-7.5-3.7-8.8,0-10.6,8.3-10.6,15s1.8,15,10.6,15,5.9-1.6,7.5-3.7c2.3-3,3-7.3,3-11.3s-.6-8.3-3-11.4Z"/>
      <path class="st1" d="M313,293.1c-7.9,0-12,5.6-12,13.2v23.5h-11.3v-46.6h9.5l1,7c2.1-5.4,7.7-7.6,13.2-7.6s2.3,0,3.5.3v10.7c-1.3-.3-2.6-.4-3.9-.4Z"/>
      <path class="st1" d="M358.6,323.7c-3.2,3.9-9.2,7.3-16.3,7.3s-13.1-3.3-16.3-7.3c-3.5-4.4-5.5-9.3-5.5-17.2s2-12.8,5.5-17.2c3.2-3.9,9.2-7.3,16.3-7.3s13.1,3.3,16.3,7.3c3.5,4.4,5.5,9.3,5.5,17.2s-2,12.8-5.5,17.2ZM349.4,294.8c-1.5-1.6-4-3-7.1-3s-5.6,1.3-7.1,3c-2.7,3-3.3,7.3-3.3,11.7s.6,8.8,3.3,11.7c1.5,1.6,4,3,7.1,3s5.6-1.3,7.1-3c2.7-3,3.3-7.3,3.3-11.7s-.6-8.8-3.3-11.7Z"/>
    </g>
  </g>
  <g>
    <path class="st1" d="M427,311.3h-29.3c0,3.4,1.1,6.6,3.2,8.6,1.5,1.4,3.6,2.7,6.5,2.7s4.9-.6,6.4-2.1c.9-.9,1.7-2.1,2.1-3.7h10.1c-.3,2.6-2,6.1-3.7,8.1-3.7,4.4-9.2,6.1-14.7,6.1s-10.3-2.1-13.8-5.4c-4.4-4.2-6.7-10.3-6.7-17.5s2.1-13.2,6.3-17.5c3.3-3.4,8-5.5,14-5.5s12.4,2.6,16,8.1c3.2,4.8,4,9.8,3.8,15.2,0,0,0,2,0,2.9ZM413.8,296c-1.4-1.5-3.6-2.5-6.6-2.5s-5.8,1.3-7.3,3.4c-1.5,1.9-2.2,4-2.3,6.8h18.9c0-3.3-1-5.8-2.7-7.7Z"/>
    <path class="st1" d="M468.5,330.5c-4.5,0-7.1-2.9-7.4-6.1-2,3.5-7.1,6.6-13.3,6.6-10.4,0-15.8-6.6-15.8-13.7s6.5-13.1,14.8-13.7l12.9-.9v-2.7c0-4.1-1.4-6.9-7.4-6.9s-7.7,2.2-8,6.2h-10.2c.6-9.8,8.4-14.2,18.2-14.2s13.9,2.4,16.4,8.9c1.1,2.8,1.3,5.9,1.3,8.8v16.2c0,2,.7,2.8,2.4,2.8s1.3-.2,1.3-.2v7.7c-1.8.8-2.7,1.2-5.2,1.2ZM459.7,310.4l-11.1.8c-3.2.3-6.3,2.2-6.3,5.7s2.9,5.5,6.2,5.5c6.6,0,11.2-3.5,11.2-10v-2Z"/>
    <path class="st1" d="M503.5,295.5c-7.4,0-11.3,5.3-11.3,12.4v22h-10.6v-43.7h8.9l.9,6.6c2-5,7.2-7.1,12.4-7.1s2.2,0,3.3.3v10.1c-1.2-.3-2.4-.4-3.6-.4Z"/>
    <path class="st1" d="M529.3,330.5c-8.8,0-13.2-5-13.2-13.5v-22.2h-8v-8.7h8v-11.1l10.5-2.6v13.7h11v8.7h-11v21.3c0,3.4,1.5,4.8,4.9,4.8s4,0,6.8-.4v8.8c-2.9.8-5.9,1.2-9,1.2Z"/>
    <path class="st1" d="M572.7,329.9v-27c0-5-1.7-8.2-7.2-8.2s-9,6.7-9,12.1v23h-10.5v-60.7h10.5v21.6c2.5-3.7,7.4-5.7,11.9-5.7,9.3,0,14.8,6.6,14.8,15.6v29.2h-10.5Z"/>
    <path class="st1" d="M594.2,280.1v-10.8h11.3v10.8h-11.3ZM594.5,329.9v-43.7h10.7v43.7h-10.7Z"/>
    <path class="st1" d="M650,330.5c-4.5,0-7.1-2.9-7.4-6.1-2,3.5-7.1,6.6-13.3,6.6-10.4,0-15.8-6.6-15.8-13.7s6.5-13.1,14.8-13.7l12.9-.9v-2.7c0-4.1-1.4-6.9-7.4-6.9s-7.7,2.2-8,6.2h-10.2c.6-9.8,8.4-14.2,18.2-14.2s13.9,2.4,16.4,8.9c1.1,2.8,1.3,5.9,1.3,8.8v16.2c0,2,.7,2.8,2.4,2.8s1.3-.2,1.3-.2v7.7c-1.8.8-2.7,1.2-5.2,1.2ZM641.2,310.4l-11.1.8c-3.2.3-6.3,2.2-6.3,5.7s2.9,5.5,6.2,5.5c6.6,0,11.2-3.5,11.2-10v-2Z"/>
    <path class="st1" d="M689.9,329.9v-26.8c0-5.1-1.7-8.2-7.2-8.2s-6.1,2.4-7.6,5.5c-1.5,3.4-1.4,8-1.4,11.7v17.8h-10.5v-43.7h8.8l.8,5.6c2.6-4.6,7.8-6.7,12.9-6.7,9.3,0,14.8,6.6,14.8,15.6v29.2h-10.5Z"/>
  </g>
</svg>